<?xml version="1.0" encoding="UTF-8"?>
<svg width="255px" height="512px" viewBox="0 0 255 512" version="1.1" xmlns="http://www.w3.org/2000/svg" xmlns:xlink="http://www.w3.org/1999/xlink">
    <title>android-2</title>
    <defs>
        <linearGradient x1="50.0000582%" y1="0%" x2="50.0000582%" y2="100%" id="linearGradient-1">
            <stop stop-color="#2D2E2A" offset="0%"></stop>
            <stop stop-color="#DEDEDE" offset="76.0033%"></stop>
        </linearGradient>
        <linearGradient x1="49.9950529%" y1="0%" x2="49.9950529%" y2="100.000476%" id="linearGradient-2">
            <stop stop-color="#2D2E2A" offset="0%"></stop>
            <stop stop-color="#DEDEDE" offset="76.0033%"></stop>
        </linearGradient>
        <linearGradient x1="50.0001746%" y1="0%" x2="50.0001746%" y2="100.000476%" id="linearGradient-3">
            <stop stop-color="#2D2E2A" offset="0%"></stop>
            <stop stop-color="#DEDEDE" offset="76.0033%"></stop>
        </linearGradient>
        <linearGradient x1="50.0000582%" y1="0%" x2="50.0000582%" y2="100%" id="linearGradient-4">
            <stop stop-color="#2D2E2A" offset="0%"></stop>
            <stop stop-color="#DEDEDE" offset="76.0033%"></stop>
        </linearGradient>
        <linearGradient x1="50.0001746%" y1="0%" x2="50.0001746%" y2="100.000476%" id="linearGradient-5">
            <stop stop-color="#2D2E2A" offset="0%"></stop>
            <stop stop-color="#DEDEDE" offset="76.0033%"></stop>
        </linearGradient>
        <path d="M0,0.361 C0,0.162 0.1618,0 0.3615,0 L0.8646,0 C1.0642,0 1.2261,0.162 1.2261,0.361 L1.2261,9.358 C1.2261,9.696 0.9516,9.971 0.613,9.971 C0.2744,9.971 0,9.696 0,9.358 L0,0.361 Z" id="path-6"></path>
        <path d="M0,0.361 C0,0.162 0.1619,0 0.3615,0 L0.8646,0 C1.0643,0 1.2261,0.162 1.2261,0.361 L1.2261,9.358 C1.2261,9.696 0.9516,9.971 0.6131,9.971 C0.2745,9.971 0,9.696 0,9.358 L0,0.361 Z" id="path-8"></path>
        <path d="M7.10542736e-15,0.361 C7.10542736e-15,0.162 0.1619,0 0.3615,0 L0.8646,0 C1.0643,0 1.2261,0.162 1.2261,0.361 L1.2261,9.358 C1.2261,9.696 0.9516,9.971 0.6131,9.971 C0.2745,9.971 7.10542736e-15,9.696 7.10542736e-15,9.358 L7.10542736e-15,0.361 Z" id="path-10"></path>
    </defs>
    <g id="Page-1" stroke="none" stroke-width="1" fill="none" fill-rule="evenodd">
        <g id="android-2" transform="translate(1.000000, 0.000000)">
            <g id="Group" transform="translate(1.521235, 0.000000)">
                <path d="M211.8787,0 C234.037082,-1.66455982e-14 252,17.9629179 252,40.1213 L252,470.8787 C252,493.037082 234.037082,511 211.8787,511 L40.1213,511 C17.9629179,511 1.69244739e-14,493.037082 0,470.8787 L0,40.1213 C4.39180818e-15,17.9629179 17.9629179,1.11758561e-14 40.1213,0 L211.8787,0 Z M240.148765,53 L11.618765,53 L11.618765,475 L240.148765,475 L240.148765,53 Z" id="Combined-Shape" fill="#000000" fill-rule="nonzero"></path>
                <rect id="Rectangle" stroke="#373A3F" stroke-width="2.4837" x="2.19693" y="2.19888" width="247.829" height="506.987" rx="37.9241"></rect>
                <rect id="Rectangle" stroke="#1C232B" stroke-width="0.955268" x="0.47959" y="0.477634" width="251.268" height="510.426" rx="39.6436"></rect>
                <g opacity="0.9" transform="translate(0.955080, 1.148440)" id="Rectangle" stroke="#A1A4AA" stroke-width="0.955268">
                    <rect x="-9.32587341e-15" y="6.21724894e-15" width="250.313" height="509.28" rx="39.357"></rect>
                </g>
                <g opacity="0.8" transform="translate(4.205430, 4.203480)" id="Rectangle" stroke="#646464" stroke-width="0.382107">
                    <rect x="-7.10542736e-15" y="-1.33226763e-14" width="243.817" height="502.975" rx="35.9181"></rect>
                </g>
                <path d="M208.6283,10.4375 C226.038414,10.4375 240.1521,24.551186 240.1521,41.9613 L240.152,52.9995 L11.619,52.9995 L11.6191,41.9613 C11.6191,24.551186 25.732786,10.4375 43.1429,10.4375 L208.6283,10.4375 Z" id="Combined-Shape" fill="#FFFFFF" fill-rule="nonzero"></path>
                <path d="M209.578,31.7926 L209.578,26.0972 C209.578,25.6176 209.646,25.4437 209.774,25.2683 C209.901,25.093 210.089,24.9554 210.327,24.8616 C210.566,24.7678 210.803,24.7179 211.456,24.7179 L213.716,24.7179 C214.368,24.7179 214.605,24.7678 214.844,24.8616 C215.082,24.9554 215.27,25.093 215.397,25.2683 C215.525,25.4437 215.593,25.6176 215.593,26.0972 L215.593,31.7926 C215.593,32.2722 215.525,32.4461 215.397,32.6214 C215.27,32.7968 215.082,32.9344 214.844,33.0282 C214.605,33.1219 214.368,33.1719 213.716,33.1719 L211.456,33.1719 C210.803,33.1719 210.566,33.1219 210.327,33.0282 C210.089,32.9344 209.901,32.7968 209.774,32.6214 C209.646,32.4461 209.578,32.2722 209.578,31.7926 Z M210.102,31.7938 C210.102,32.1731 210.137,32.3055 210.236,32.4415 C210.315,32.5499 210.427,32.6326 210.575,32.6906 C210.76,32.7633 210.94,32.7889 211.456,32.7889 L213.716,32.7889 C214.233,32.7889 214.413,32.7633 214.598,32.6906 C214.745,32.6326 214.858,32.5499 214.937,32.4415 C215.036,32.3055 215.071,32.1731 215.071,31.7938 L215.071,26.0985 C215.071,25.7192 215.036,25.5868 214.937,25.4508 C214.858,25.3424 214.745,25.2597 214.598,25.2017 C214.413,25.129 214.233,25.1034 213.716,25.1034 L211.456,25.1034 C210.94,25.1034 210.76,25.129 210.575,25.2017 C210.427,25.2597 210.315,25.3424 210.236,25.4508 C210.137,25.5868 210.102,25.7192 210.102,26.0985 L210.102,31.7938 Z M212.551,23.7568 C213.198,23.7568 213.597,24.3333 213.597,24.3333 L211.505,24.3333 C211.505,24.3333 211.905,23.7568 212.551,23.7568 Z" id="Shape" fill-opacity="0.36" fill="#000000"></path>
                <rect id="Rectangle" fill="#000000" fill-rule="nonzero" transform="translate(212.582965, 28.943845) rotate(-90.000000) translate(-212.582965, -28.943845) " x="209.12451" y="26.93888" width="6.91691" height="4.00993" rx="0.836855"></rect>
                <path d="M203.674,26.0052 C203.662,26.0658 203.662,26.1387 203.662,26.2846 L203.662,30.3119 C203.662,30.4577 203.662,30.5306 203.674,30.5913 C203.723,30.8403 203.918,31.0349 204.167,31.0844 C204.228,31.0965 204.301,31.0965 204.446,31.0965 C204.592,31.0965 204.665,31.0965 204.726,31.0844 C204.975,31.0349 205.169,30.8403 205.219,30.5913 C205.231,30.5306 205.231,30.4577 205.231,30.3119 L205.231,26.2846 C205.231,26.1387 205.231,26.0658 205.219,26.0052 C205.169,25.7562 204.975,25.5616 204.726,25.5121 C204.665,25.5 204.592,25.5 204.446,25.5 C204.301,25.5 204.228,25.5 204.167,25.5121 C203.918,25.5616 203.723,25.7562 203.674,26.0052 Z M201.199,27.5414 C201.199,27.3955 201.199,27.3226 201.211,27.262 C201.261,27.013 201.455,26.8184 201.704,26.7689 C201.765,26.7568 201.838,26.7568 201.984,26.7568 C202.129,26.7568 202.202,26.7568 202.263,26.7689 C202.512,26.8184 202.707,27.013 202.756,27.262 C202.768,27.3226 202.768,27.3955 202.768,27.5414 L202.768,30.3134 C202.768,30.4593 202.768,30.5322 202.756,30.5928 C202.707,30.8418 202.512,31.0364 202.263,31.0859 C202.202,31.098 202.129,31.098 201.984,31.098 C201.838,31.098 201.765,31.098 201.704,31.0859 C201.455,31.0364 201.261,30.8418 201.211,30.5928 C201.199,30.5322 201.199,30.4593 201.199,30.3134 L201.199,27.5414 Z M198.811,28.4641 C198.799,28.5247 198.799,28.5976 198.799,28.7434 L198.799,30.3125 C198.799,30.4584 198.799,30.5313 198.811,30.5919 C198.86,30.8409 199.055,31.0355 199.304,31.085 C199.365,31.0971 199.438,31.0971 199.583,31.0971 C199.729,31.0971 199.802,31.0971 199.863,31.085 C200.112,31.0355 200.306,30.8409 200.356,30.5919 C200.368,30.5313 200.368,30.4584 200.368,30.3125 L200.368,28.7434 C200.368,28.5976 200.368,28.5247 200.356,28.4641 C200.306,28.2151 200.112,28.0205 199.863,27.971 C199.802,27.9589 199.729,27.9589 199.583,27.9589 C199.438,27.9589 199.365,27.9589 199.304,27.971 C199.055,28.0205 198.86,28.2151 198.811,28.4641 Z M196.297,29.5098 C196.285,29.5704 196.285,29.6433 196.285,29.7892 L196.285,30.3122 C196.285,30.458 196.285,30.5309 196.297,30.5915 C196.347,30.8405 196.541,31.0352 196.79,31.0847 C196.851,31.0967 196.924,31.0967 197.07,31.0967 C197.216,31.0967 197.288,31.0967 197.349,31.0847 C197.598,31.0352 197.793,30.8405 197.842,30.5915 C197.854,30.5309 197.854,30.458 197.854,30.3122 L197.854,29.7892 C197.854,29.6433 197.854,29.5704 197.842,29.5098 C197.793,29.2608 197.598,29.0662 197.349,29.0167 C197.288,29.0046 197.216,29.0046 197.07,29.0046 C196.924,29.0046 196.851,29.0046 196.79,29.0167 C196.541,29.0662 196.347,29.2608 196.297,29.5098 Z" id="Shape" fill="#000000"></path>
                <path d="M187.906,26.7011 C189.075,26.7011 190.199,27.1502 191.046,27.9554 C191.11,28.0176 191.212,28.0168 191.275,27.9537 L191.884,27.3384 C191.916,27.3063 191.934,27.263 191.934,27.2178 C191.933,27.1727 191.915,27.1295 191.883,27.0979 C189.66,24.9674 186.153,24.9674 183.93,27.0979 C183.897,27.1295 183.879,27.1726 183.879,27.2178 C183.879,27.2629 183.896,27.3063 183.928,27.3384 L184.538,27.9537 C184.601,28.0169 184.703,28.0177 184.766,27.9554 C185.614,27.1501 186.738,26.7011 187.906,26.7011 Z M187.905,28.7036 C188.547,28.7036 189.167,28.9422 189.643,29.3732 C189.707,29.4344 189.808,29.4331 189.871,29.3702 L190.48,28.7549 C190.512,28.7227 190.53,28.6789 190.53,28.6334 C190.529,28.5879 190.51,28.5445 190.478,28.5129 C189.028,27.1646 186.784,27.1646 185.334,28.5129 C185.301,28.5445 185.283,28.5879 185.282,28.6334 C185.282,28.6789 185.3,28.7227 185.332,28.7549 L185.941,29.3702 C186.003,29.4331 186.105,29.4344 186.169,29.3732 C186.645,28.9425 187.264,28.7039 187.905,28.7036 Z M189.076,30.171 C189.109,30.139 189.127,30.095 189.126,30.0494 C189.125,30.0038 189.105,29.9605 189.071,29.9299 C188.398,29.3609 187.413,29.3609 186.74,29.9299 C186.707,29.9605 186.687,30.0037 186.686,30.0493 C186.685,30.095 186.703,30.139 186.735,30.171 L187.789,31.234 C187.82,31.2653 187.862,31.2829 187.906,31.2829 C187.95,31.2829 187.992,31.2653 188.023,31.234 L189.076,30.171 Z" id="Shape" fill="#000000"></path>
                <path d="M39.358,27.951 L39.4429,27.951 C39.8336,27.951 40.1591,27.9001 40.4195,27.7982 C40.6828,27.6934 40.8923,27.5491 41.048,27.3651 C41.2037,27.1811 41.3155,26.9645 41.3834,26.7154 C41.4514,26.4663 41.4853,26.1959 41.4853,25.9044 L41.4853,24.8386 C41.4853,24.5866 41.4584,24.3658 41.4047,24.1762 C41.3537,23.9837 41.2801,23.8237 41.1839,23.6963 C41.0904,23.5661 40.9815,23.4685 40.8569,23.4033 C40.7352,23.3382 40.6035,23.3057 40.462,23.3057 C40.3063,23.3057 40.1662,23.3411 40.0416,23.4118 C39.9199,23.4798 39.8166,23.5746 39.7317,23.6963 C39.6496,23.8152 39.5859,23.9554 39.5406,24.1167 C39.4981,24.2752 39.4769,24.4451 39.4769,24.6263 C39.4769,24.7961 39.4967,24.9603 39.5363,25.1188 C39.5788,25.2745 39.6411,25.4132 39.7232,25.5349 C39.8053,25.6567 39.9086,25.7529 40.0331,25.8237 C40.1577,25.8945 40.3035,25.9298 40.4705,25.9298 C40.629,25.9298 40.7748,25.9001 40.9079,25.8407 C41.0409,25.7784 41.157,25.6949 41.256,25.5901 C41.3551,25.4854 41.433,25.3679 41.4896,25.2377 C41.5462,25.1075 41.5773,24.9744 41.583,24.8386 L41.9737,24.9575 C41.9737,25.1726 41.9284,25.3849 41.8378,25.5944 C41.75,25.801 41.6269,25.9907 41.4684,26.1634 C41.3127,26.3332 41.1301,26.4691 40.9206,26.571 C40.7139,26.6729 40.4889,26.7239 40.2454,26.7239 C39.951,26.7239 39.6906,26.6687 39.4641,26.5583 C39.2405,26.445 39.0537,26.2922 38.9036,26.0997 C38.7564,25.9072 38.646,25.6864 38.5724,25.4373 C38.4988,25.1882 38.462,24.9263 38.462,24.6517 C38.462,24.3545 38.5073,24.0757 38.5979,23.8152 C38.6885,23.5548 38.8201,23.3255 38.9928,23.1273 C39.1655,22.9264 39.375,22.7707 39.6213,22.6603 C39.8704,22.547 40.152,22.4904 40.4663,22.4904 C40.8003,22.4904 41.0933,22.5555 41.3452,22.6857 C41.5972,22.816 41.8095,22.9957 41.9821,23.225 C42.1548,23.4543 42.285,23.7204 42.3728,24.0233 C42.4606,24.3262 42.5044,24.6517 42.5044,24.9999 L42.5044,25.3608 C42.5044,25.726 42.4719,26.0785 42.4068,26.4182 C42.3417,26.755 42.2355,27.0678 42.0883,27.3566 C41.9439,27.6425 41.7529,27.8944 41.5151,28.1124 C41.2801,28.3275 40.9914,28.496 40.6488,28.6177 C40.3091,28.7366 39.91,28.796 39.4514,28.796 L39.358,28.796 L39.358,27.951 Z M43.4627,28.2483 C43.4627,28.0897 43.5165,27.9567 43.6241,27.8491 C43.7316,27.7387 43.8774,27.6835 44.0614,27.6835 C44.2482,27.6835 44.394,27.7387 44.4988,27.8491 C44.6063,27.9567 44.6601,28.0897 44.6601,28.2483 C44.6601,28.4068 44.6063,28.5398 44.4988,28.6474 C44.394,28.755 44.2482,28.8088 44.0614,28.8088 C43.8774,28.8088 43.7316,28.755 43.6241,28.6474 C43.5165,28.5398 43.4627,28.4068 43.4627,28.2483 Z M43.4669,24.6305 C43.4669,24.472 43.5207,24.3389 43.6283,24.2314 C43.7359,24.121 43.8817,24.0658 44.0657,24.0658 C44.2525,24.0658 44.3983,24.121 44.503,24.2314 C44.6106,24.3389 44.6644,24.472 44.6644,24.6305 C44.6644,24.789 44.6106,24.9221 44.503,25.0296 C44.3983,25.1372 44.2525,25.191 44.0657,25.191 C43.8817,25.191 43.7359,25.1372 43.6283,25.0296 C43.5207,24.9221 43.4669,24.789 43.4669,24.6305 Z M49.8561,26.554 L49.8561,27.3693 L45.3976,27.3693 L45.3636,26.7536 L48.0302,22.5753 L48.8498,22.5753 L47.9623,24.0955 L46.4294,26.554 L49.8561,26.554 Z M49.0833,22.5753 L49.0833,28.7578 L48.06,28.7578 L48.06,22.5753 L49.0833,22.5753 Z M53.2475,22.5541 L53.2475,28.7578 L52.2241,28.7578 L52.2241,23.7685 L50.7082,24.2823 L50.7082,23.4373 L53.1243,22.5541 L53.2475,22.5541 Z" id="Shape" fill="#000000" fill-rule="nonzero"></path>
                <g opacity="0.75" style="mix-blend-mode: screen;" transform="translate(0.000000, 450.504000)" fill="#7C7C7C" fill-rule="nonzero" id="Rectangle">
                    <rect x="0" y="0" width="3.43896" height="3.05686"></rect>
                </g>
                <g opacity="0.75" style="mix-blend-mode: screen;" transform="translate(50.248000, 500.941000)" fill="#7C7C7C" fill-rule="nonzero" id="Rectangle">
                    <rect x="0" y="-5.68434189e-14" width="3.05686" height="3.43896"></rect>
                </g>
                <g opacity="0.75" style="mix-blend-mode: screen;" transform="translate(243.785000, 51.011700)" fill="#7C7C7C" fill-rule="nonzero" id="Rectangle">
                    <rect x="0" y="0" width="3.43896" height="3.05686"></rect>
                </g>
                <g opacity="0.75" style="mix-blend-mode: screen;" transform="translate(0.000000, 51.011700)" fill="#7C7C7C" fill-rule="nonzero" id="Rectangle">
                    <rect x="0" y="0" width="3.43896" height="3.05686"></rect>
                </g>
                <g opacity="0.75" style="mix-blend-mode: screen;" transform="translate(194.686000, 0.000000)" fill="#7C7C7C" fill-rule="nonzero" id="Rectangle">
                    <rect x="2.84217094e-14" y="0" width="3.05686" height="3.43896"></rect>
                </g>
                <g opacity="0.75" style="mix-blend-mode: screen;" transform="translate(243.785000, 450.312000)" fill="#7C7C7C" fill-rule="nonzero" id="Rectangle">
                    <rect x="0" y="0" width="3.43896" height="3.05686"></rect>
                </g>
                <rect id="Rectangle" fill="#000000" fill-rule="nonzero" x="112.156" y="19.4883" width="22.909" height="12.5999" rx="6.29995"></rect>
                <rect id="Rectangle" fill="#141414" fill-rule="nonzero" x="114.639" y="21.9688" width="7.63632" height="7.63632" rx="3.81816"></rect>
                <rect id="Rectangle" fill="#000000" fill-rule="nonzero" x="115.975" y="23.3047" width="4.96361" height="4.96361" rx="2.481805"></rect>
                <path d="M117.711,24.2969 C116.583,24.6278 116.206,26.5305 117.711,27.275 C117.335,26.2823 117.335,25.3723 117.711,24.2969 Z" id="Path" fill="#50A99A" fill-rule="nonzero"></path>
                <path d="M117.463,24.9844 C116.899,25.1626 116.711,26.1871 117.463,26.588 C117.275,26.0535 117.275,25.5635 117.463,24.9844 Z" id="Path" fill="#50A99A" fill-rule="nonzero"></path>
                <g opacity="0.5" transform="translate(116.917634, 24.727600)" fill="#D0FFF7" fill-rule="nonzero" id="Path">
                    <path d="M0.778366436,0 C0.295366436,0.0729 -0.0586335637,1.4114 0.526366436,1.7667 C0.319366436,1.2895 0.422366436,0.3349 0.778366436,0 Z"></path>
                </g>
                <path d="M119.201,24.2969 C120.329,24.6278 120.706,26.5305 119.201,27.275 C119.577,26.2823 119.577,25.3723 119.201,24.2969 Z" id="Path" fill="#3E518C" fill-rule="nonzero"></path>
                <path d="M119.449,24.9844 C120.013,25.1626 120.202,26.1871 119.449,26.588 C119.637,26.0535 119.637,25.5635 119.449,24.9844 Z" id="Path" fill="#26408D" fill-rule="nonzero"></path>
                <g opacity="0.5" transform="translate(118.996491, 24.727600)" fill="#0D308C" fill-rule="nonzero" id="Path">
                    <path d="M0.221508927,0 C0.704508927,0.0729 1.05850893,1.4114 0.474508927,1.7667 C0.680508927,1.2895 0.577508927,0.3349 0.221508927,0 Z"></path>
                </g>
            </g>
            <g id="Right-buttons" transform="translate(248.655871, 154.556546)">
                <g id="Group" transform="translate(0.000000, -0.000000)">
                    <g id="Rectangle">
                        <rect fill="#DEDEDE" fill-rule="nonzero" transform="translate(1.095364, 29.904554) scale(-1, 1) translate(-1.095364, -29.904554) " x="0.0953641" y="0.0954541" width="2" height="59.6182" rx="0.190908"></rect>
                        <rect stroke="#000000" stroke-width="0.190908" transform="translate(1.095455, 29.904550) scale(-1, 1) translate(-1.095455, -29.904550) " x="0" y="2.84217094e-14" width="2.19091" height="59.8091" rx="0.286362"></rect>
                    </g>
                    <rect id="Rectangle" stroke="#FAFAF8" stroke-width="0.190908" transform="translate(1.097365, 29.905650) scale(-1, 1) translate(-1.097365, -29.905650) " x="0.19282" y="0.192" width="1.80909" height="59.4273" rx="0.133636"></rect>
                    <rect id="Rectangle" fill="url(#linearGradient-1)" fill-rule="nonzero" transform="translate(1.047279, 2.387444) scale(-1, 1) translate(-1.047279, -2.387444) " x="0.1881941" y="0.2874541" width="1.71817" height="4.19998" rx="0.0954541"></rect>
                    <rect id="Rectangle" fill="url(#linearGradient-2)" fill-rule="nonzero" transform="translate(1.047279, 57.421464) rotate(-180.000000) translate(-1.047279, -57.421464) " x="0.1881941" y="55.3214741" width="1.71817" height="4.19998" rx="0.0954541"></rect>
                </g>
            </g>
            <g id="Left-buttons" transform="translate(0.000000, 104.885000)">
                <g id="Group" transform="translate(0.000000, 0.000000)">
                    <g id="Rectangle">
                        <rect fill="#DEDEDE" fill-rule="nonzero" x="0.095454" y="0.095" width="2" height="18.6182" rx="0.190908"></rect>
                        <rect stroke="#000000" stroke-width="0.190908" x="1.11022302e-16" y="0" width="2.19091" height="18.8091" rx="0.286362"></rect>
                    </g>
                    <rect id="Rectangle" stroke="#FAFAF8" stroke-width="0.190908" x="0.189453" y="0.191" width="1.80909" height="18.4273" rx="0.133636"></rect>
                    <rect id="Rectangle" fill="url(#linearGradient-3)" fill-rule="nonzero" x="0.284907" y="0.287" width="1.71817" height="2.09999" rx="0.0954541"></rect>
                    <rect id="Rectangle" fill="url(#linearGradient-4)" fill-rule="nonzero" transform="translate(1.143992, 17.471005) scale(-1, 1) rotate(-180.000000) translate(-1.143992, -17.471005) " x="0.284907" y="16.42101" width="1.71817" height="2.09999" rx="0.0954541"></rect>
                </g>
                <g id="Group" transform="translate(0.000000, 36.105000)">
                    <g id="Rectangle">
                        <rect fill="#DEDEDE" fill-rule="nonzero" x="0.095454" y="0.096" width="2" height="38.6182" rx="0.190908"></rect>
                        <rect stroke="#000000" stroke-width="0.190908" x="1.11022302e-16" y="0" width="2.19091" height="38.8091" rx="0.286362"></rect>
                    </g>
                    <rect id="Rectangle" stroke="#FAFAF8" stroke-width="0.190908" x="0.189453" y="0.192" width="1.80909" height="38.4273" rx="0.133636"></rect>
                    <rect id="Rectangle" fill="url(#linearGradient-5)" fill-rule="nonzero" x="0.284907" y="0.287" width="1.71817" height="4.19998" rx="0.0954541"></rect>
                    <rect id="Rectangle" fill="url(#linearGradient-1)" fill-rule="nonzero" transform="translate(1.143992, 36.422010) scale(-1, 1) rotate(-180.000000) translate(-1.143992, -36.422010) " x="0.284907" y="34.32202" width="1.71817" height="4.19998" rx="0.0954541"></rect>
                </g>
                <g id="Group" transform="translate(0.000000, 84.637000)">
                    <g id="Rectangle">
                        <rect fill="#DEDEDE" fill-rule="nonzero" x="0.095454" y="0.095" width="2" height="38.6182" rx="0.190908"></rect>
                        <rect stroke="#000000" stroke-width="0.190908" x="1.11022302e-16" y="0" width="2.19091" height="38.8091" rx="0.286362"></rect>
                    </g>
                    <rect id="Rectangle" stroke="#FAFAF8" stroke-width="0.190908" x="0.189453" y="0.191" width="1.80909" height="38.4273" rx="0.133636"></rect>
                    <rect id="Rectangle" fill="url(#linearGradient-5)" fill-rule="nonzero" x="0.284907" y="0.287" width="1.71817" height="4.19998" rx="0.0954541"></rect>
                    <rect id="Rectangle" fill="url(#linearGradient-1)" fill-rule="nonzero" transform="translate(1.143992, 36.421010) scale(-1, 1) rotate(-180.000000) translate(-1.143992, -36.421010) " x="0.284907" y="34.32102" width="1.71817" height="4.19998" rx="0.0954541"></rect>
                </g>
            </g>
            <g id="Buttons" transform="translate(10.616935, 474.844000)">
                <path d="M1.42108547e-14,-1.13686838e-13 L234.4953,-1.13686838e-13 C234.4953,15.018 222.3203,27.193 207.3023,27.193 L27.1935,27.193 C12.175,27.193 1.42108547e-14,15.018 1.42108547e-14,-1.13686838e-13 Z" id="Path" fill="#000000" fill-rule="nonzero"></path>
                <path d="M44.7852,11.435 C44.7852,11.236 44.947,11.074 45.1467,11.074 L45.6498,11.074 C45.8494,11.074 46.0113,11.236 46.0113,11.435 L46.0113,20.432 C46.0113,20.77 45.7368,21.045 45.3982,21.045 C45.0596,21.045 44.7852,20.77 44.7852,20.432 L44.7852,11.435 Z" id="Path" fill="#CFD4DB" fill-rule="nonzero"></path>
                <g id="Clipped" transform="translate(44.785200, 11.074000)">
                    <mask id="mask-7" fill="white">
                        <use xlink:href="#path-6"></use>
                    </mask>
                    <g id="Path"></g>
                    <path d="M0.3615,1.354 L0.8646,1.354 L0.8646,-1.354 L0.3615,-1.354 L0.3615,1.354 Z M-0.1283,0.361 L-0.1283,9.358 L2.5805,9.358 L2.5805,0.361 L-0.1283,0.361 Z M1.3544,9.358 L1.3544,0.361 L-1.3544,0.361 L-1.3544,9.358 L1.3544,9.358 Z M0.613,8.617 C1.0224,8.617 1.3544,8.948 1.3544,9.358 L-1.3544,9.358 C-1.3544,10.444 -0.4736,11.325 0.613,11.325 L0.613,8.617 Z M-0.1283,9.358 C-0.1283,8.948 0.2036,8.617 0.613,8.617 L0.613,11.325 C1.6996,11.325 2.5805,10.444 2.5805,9.358 L-0.1283,9.358 Z M0.8646,1.354 C0.3162,1.354 -0.1283,0.91 -0.1283,0.361 L2.5805,0.361 C2.5805,-0.586 1.8122,-1.354 0.8646,-1.354 L0.8646,1.354 Z M0.3615,-1.354 C-0.5862,-1.354 -1.3544,-0.586 -1.3544,0.361 L1.3544,0.361 C1.3544,0.91 0.9098,1.354 0.3615,1.354 L0.3615,-1.354 Z" id="Shape" fill="#CFD4DB" fill-rule="nonzero" mask="url(#mask-7)"></path>
                </g>
                <path d="M48.7754,11.435 C48.7754,11.236 48.9373,11.074 49.1369,11.074 L49.64,11.074 C49.8397,11.074 50.0015,11.236 50.0015,11.435 L50.0015,20.432 C50.0015,20.77 49.727,21.045 49.3885,21.045 C49.0499,21.045 48.7754,20.77 48.7754,20.432 L48.7754,11.435 Z" id="Path" fill="#CFD4DB" fill-rule="nonzero"></path>
                <g id="Clipped" transform="translate(48.775400, 11.074000)">
                    <mask id="mask-9" fill="white">
                        <use xlink:href="#path-8"></use>
                    </mask>
                    <g id="Path"></g>
                    <path d="M0.3615,1.354 L0.8646,1.354 L0.8646,-1.354 L0.3615,-1.354 L0.3615,1.354 Z M-0.1283,0.361 L-0.1283,9.358 L2.5805,9.358 L2.5805,0.361 L-0.1283,0.361 Z M1.3544,9.358 L1.3544,0.361 L-1.3544,0.361 L-1.3544,9.358 L1.3544,9.358 Z M0.6131,8.617 C1.0225,8.617 1.3544,8.948 1.3544,9.358 L-1.3544,9.358 C-1.3544,10.444 -0.4735,11.325 0.6131,11.325 L0.6131,8.617 Z M-0.1283,9.358 C-0.1283,8.948 0.2036,8.617 0.6131,8.617 L0.6131,11.325 C1.6996,11.325 2.5805,10.444 2.5805,9.358 L-0.1283,9.358 Z M0.8646,1.354 C0.3162,1.354 -0.1283,0.91 -0.1283,0.361 L2.5805,0.361 C2.5805,-0.586 1.8123,-1.354 0.8646,-1.354 L0.8646,1.354 Z M0.3615,-1.354 C-0.5862,-1.354 -1.3544,-0.586 -1.3544,0.361 L1.3544,0.361 C1.3544,0.91 0.9099,1.354 0.3615,1.354 L0.3615,-1.354 Z" id="Shape" fill="#CFD4DB" fill-rule="nonzero" mask="url(#mask-9)"></path>
                </g>
                <path d="M52.75,11.435 C52.75,11.236 52.9119,11.074 53.1115,11.074 L53.6146,11.074 C53.8143,11.074 53.9761,11.236 53.9761,11.435 L53.9761,20.432 C53.9761,20.77 53.7016,21.045 53.3631,21.045 C53.0245,21.045 52.75,20.77 52.75,20.432 L52.75,11.435 Z" id="Path" fill="#CFD4DB" fill-rule="nonzero"></path>
                <g id="Clipped" transform="translate(52.750000, 11.074000)">
                    <mask id="mask-11" fill="white">
                        <use xlink:href="#path-10"></use>
                    </mask>
                    <g id="Path"></g>
                    <path d="M0.3615,1.354 L0.8646,1.354 L0.8646,-1.354 L0.3615,-1.354 L0.3615,1.354 Z M-0.1283,0.361 L-0.1283,9.358 L2.5805,9.358 L2.5805,0.361 L-0.1283,0.361 Z M1.3544,9.358 L1.3544,0.361 L-1.3544,0.361 L-1.3544,9.358 L1.3544,9.358 Z M0.6131,8.617 C1.0225,8.617 1.3544,8.948 1.3544,9.358 L-1.3544,9.358 C-1.3544,10.444 -0.4735,11.325 0.6131,11.325 L0.6131,8.617 Z M-0.1283,9.358 C-0.1283,8.948 0.2036,8.617 0.6131,8.617 L0.6131,11.325 C1.6997,11.325 2.5805,10.444 2.5805,9.358 L-0.1283,9.358 Z M0.8646,1.354 C0.3163,1.354 -0.1283,0.91 -0.1283,0.361 L2.5805,0.361 C2.5805,-0.586 1.8123,-1.354 0.8646,-1.354 L0.8646,1.354 Z M0.3615,-1.354 C-0.5861,-1.354 -1.3544,-0.586 -1.3544,0.361 L1.3544,0.361 C1.3544,0.91 0.9099,1.354 0.3615,1.354 L0.3615,-1.354 Z" id="Shape" fill="#CFD4DB" fill-rule="nonzero" mask="url(#mask-11)"></path>
                </g>
                <path d="M110.7613,14.074 C110.7613,12.791 111.8013,11.751 113.0843,11.751 L117.1993,11.751 C118.4823,11.751 119.5223,12.791 119.5223,14.074 L119.5223,18.045 C119.5223,19.328 118.4823,20.368 117.1993,20.368 L113.0843,20.368 C111.8013,20.368 110.7613,19.328 110.7613,18.045 L110.7613,14.074 Z" id="Path" stroke="#CFD4DB" stroke-width="1.35439"></path>
                <path d="M180.5293,16.418 L184.6503,20.164 C184.7133,20.225 184.7403,20.297 184.7393,20.362 C184.7393,20.427 184.7103,20.5 184.6433,20.561 C184.5753,20.623 184.4743,20.664 184.3613,20.6650188 C184.2493,20.666 184.1493,20.627 184.0793,20.567 L179.3703,16.286 C179.3703,16.286 179.3703,16.286 179.3703,16.286 C179.3023,16.224 179.2733,16.151 179.2733,16.084 C179.2733,16.018 179.3023,15.944 179.3703,15.883 C179.3703,15.883 179.3703,15.883 179.3703,15.883 L184.0823,11.599 C184.1513,11.536 184.2533,11.494 184.3683,11.494 C184.4823,11.494 184.5843,11.536 184.6533,11.599 C184.7213,11.66 184.7493,11.733 184.7493,11.8 C184.7493,11.866 184.7213,11.94 184.6533,12.001 C184.6533,12.001 184.6533,12.001 184.6533,12.001 L180.5293,15.75 L180.1623,16.084 L180.5293,16.418 Z" id="Path" stroke="#CFD4DB" stroke-width="0.90293" fill="#000000" fill-rule="nonzero"></path>
            </g>
        </g>
    </g>
</svg>